<svg preserveAspectRatio="xMidYMid meet" viewBox="0 0 240 80" xmlns="http://www.w3.org/2000/svg" shape-rendering="geometricPrecision" text-rendering="geometricPrecision" image-rendering="optimizeQuality" fill-rule="evenodd" clip-rule="evenodd" role="img" aria-label="Elite Spine &amp; Sports Care">
    <g>
        <path fill="none" d="M240 0v80H0V0h240z"></path>
        <path d="m178.23 42.9.13 4.4h-.23c-.07-.19-.13-.34-.17-.44-.23-.64-.42-1.11-.57-1.43-.26-.56-.64-1.07-1.14-1.54-.37-.36-.76-.62-1.16-.78-.4-.16-.85-.23-1.36-.23-.75 0-1.41.16-1.96.48-.49.29-.94.71-1.36 1.24-.43.54-.77 1.15-1.04 1.84-.38.97-.57 2.07-.57 3.3 0 1.05.13 2 .39 2.83.26.84.64 1.55 1.14 2.11.93 1.06 2.15 1.59 3.68 1.59.76 0 1.44-.14 2.05-.4.61-.26 1.08-.63 1.41-1.11.39-.56.67-1.31.85-2.25l.22.05c-.13 1.05-.41 1.89-.86 2.51-.43.6-1.02 1.05-1.77 1.36-.75.32-1.62.47-2.61.47-.92 0-1.8-.13-2.64-.41-1.34-.44-2.39-1.23-3.15-2.39-.76-1.14-1.13-2.52-1.13-4.12 0-1.21.22-2.34.66-3.37.44-1.03 1.05-1.86 1.84-2.49a7.17 7.17 0 0 1 2.18-1.15c.85-.28 1.69-.42 2.54-.42.81 0 1.66.15 2.57.46l.82.27c.16.06.3.09.42.09.16 0 .3-.07.41-.21.04-.06.1-.17.17-.33l.24.07zm-27.58 13.61.03-4.14.23.04c.28 1.05.62 1.88 1.01 2.49.72 1.11 1.64 1.68 2.75 1.68.77 0 1.41-.26 1.91-.78.5-.51.75-1.16.75-1.95 0-.34-.05-.69-.17-1.04-.1-.36-.25-.66-.44-.91-.2-.26-.47-.51-.82-.76-.35-.24-.89-.54-1.61-.91-.64-.32-1.13-.59-1.47-.81-.34-.22-.61-.44-.82-.67-.58-.63-.86-1.39-.86-2.3 0-.55.11-1.08.33-1.6.23-.51.54-.95.95-1.32.71-.65 1.55-.98 2.52-.98.32 0 .61.03.88.09s.63.19 1.08.37c.33.14.56.22.68.26.12.04.23.05.33.05.23 0 .39-.16.47-.51h.22l.06 3.98h-.22c-.18-.63-.34-1.12-.47-1.46-.13-.34-.28-.65-.46-.94-.33-.52-.69-.91-1.09-1.16-.39-.25-.85-.38-1.37-.38-.74 0-1.34.26-1.77.77-.18.21-.32.45-.43.73-.1.28-.15.56-.15.85 0 1.11.71 2.01 2.15 2.7l1.41.68c1.1.52 1.88 1.09 2.36 1.71.55.7.82 1.51.82 2.43 0 .61-.12 1.2-.37 1.75-.35.78-.87 1.38-1.56 1.8-.7.42-1.52.63-2.47.63-.86 0-1.69-.17-2.49-.51-.42-.19-.66-.29-.75-.32-.07-.02-.17-.04-.27-.04-.32 0-.54.16-.66.48h-.22zm-9.14-13.31c-.42 0-.87.02-1.36.04-1.03.05-1.79.18-2.3.39-.5.21-.92.57-1.25 1.08-.3.47-.53 1.1-.69 1.9l-.23-.02.19-3.69h13.53l.19 3.69-.23.02c-.18-.93-.46-1.63-.84-2.11-.39-.48-.95-.82-1.68-1.03-.62-.18-1.67-.27-3.16-.27v10.23c0 .68.04 1.19.12 1.52.07.33.22.6.43.82.18.19.4.33.63.42.24.08.55.14.93.16v.23h-6.39v-.23c.38-.02.7-.08.93-.16.24-.09.45-.23.64-.42.2-.22.35-.49.42-.82.08-.32.12-.83.12-1.52V43.2zm-14.41 6.46h.38c.84 0 1.44-.04 1.79-.14.36-.09.7-.28 1.02-.58.7-.67 1.06-1.5 1.06-2.49 0-.52-.11-1.02-.31-1.49-.21-.46-.49-.84-.85-1.15-.29-.22-.62-.38-1.01-.47-.39-.09-.95-.14-1.67-.14h-.41v6.46zm0 .23v3.54c0 .69.04 1.19.12 1.52.08.33.22.61.42.82.18.19.4.32.64.42.24.08.55.14.94.16v.23h-6.4v-.23c.39-.02.7-.08.94-.16.24-.1.44-.23.63-.42.21-.22.35-.49.43-.82.07-.32.11-.83.11-1.52v-7.39c0-.69-.04-1.2-.11-1.52-.08-.33-.22-.6-.43-.82-.19-.19-.39-.33-.64-.42a3.56 3.56 0 0 0-.93-.16v-.22h4.83c.81 0 1.34 0 1.6.01 1.03.04 1.84.18 2.43.42.67.26 1.18.66 1.54 1.2.37.53.55 1.14.55 1.85 0 1.04-.4 1.87-1.19 2.5-.23.19-.5.34-.79.46-.29.12-.68.24-1.17.34.4.17.69.35.88.52.15.14.29.32.41.53.13.21.32.58.56 1.12.6 1.22 1.05 2.12 1.35 2.68.3.57.56.98.77 1.23.16.21.33.35.48.43.16.08.37.13.65.16v.23h-3.31c-.16-.37-.27-.61-.32-.71l-.7-1.59c-.42-.95-.85-1.8-1.27-2.53-.43-.73-.82-1.23-1.18-1.49-.18-.13-.38-.23-.58-.28-.21-.06-.47-.09-.77-.09h-.49zm-18.03.07c0 1.95.53 3.58 1.59 4.91.47.59.97 1.03 1.51 1.3.53.27 1.14.41 1.84.41.7 0 1.32-.14 1.84-.41.54-.26 1.04-.7 1.53-1.3 1.05-1.34 1.58-2.98 1.58-4.94 0-1.08-.15-2.1-.44-3.06-.29-.96-.7-1.77-1.23-2.44-.42-.55-.9-.95-1.43-1.2-.52-.25-1.14-.38-1.85-.38-.71 0-1.33.13-1.84.38-.52.24-1 .64-1.44 1.2-.53.66-.94 1.47-1.23 2.44-.28.96-.43 1.99-.43 3.09zm-2.42-.14c0-1.12.24-2.16.72-3.12.49-.96 1.19-1.79 2.11-2.51.69-.53 1.43-.93 2.22-1.22.8-.28 1.6-.42 2.41-.42 1.02 0 2.02.22 2.98.67.96.46 1.8 1.09 2.52 1.91 1.18 1.34 1.77 2.86 1.77 4.56 0 .86-.16 1.68-.46 2.48-.31.79-.76 1.51-1.35 2.17-.72.81-1.57 1.45-2.55 1.89-.99.45-2.02.67-3.09.67a7.27 7.27 0 0 1-3.05-.65c-.97-.43-1.8-1.04-2.5-1.84-.56-.62-.98-1.33-1.28-2.12-.3-.79-.45-1.61-.45-2.47zm-8.04-.3h.98c.66 0 1.17-.05 1.53-.15.36-.09.68-.27.96-.53.65-.6.98-1.39.98-2.38 0-.55-.1-1.06-.29-1.51-.19-.46-.46-.84-.81-1.12-.41-.35-.9-.54-1.46-.61-.15-.01-.5-.02-1.05-.02h-.84v6.32zm0 .31v3.6c0 .68.04 1.19.12 1.52.07.33.22.6.42.82.18.19.39.32.63.42.24.08.55.14.94.16v.23h-6.39v-.23c.39-.02.7-.08.94-.16.24-.1.45-.23.63-.42.21-.22.35-.49.43-.82.07-.32.11-.83.11-1.52v-7.39c0-.57-.03-1.02-.08-1.33-.05-.31-.14-.56-.26-.75a1.52 1.52 0 0 0-.66-.6c-.26-.13-.61-.21-1.04-.24h-.07v-.22h6.03c1.06 0 1.83.05 2.33.16.5.1.96.32 1.37.64.95.72 1.42 1.68 1.42 2.88 0 1.22-.48 2.12-1.44 2.69-.5.29-1.11.47-1.82.53-.23.02-.78.03-1.65.03h-1.96zm-14.42 6.68.03-4.14.24.04c.28 1.05.61 1.88 1 2.49.73 1.11 1.65 1.68 2.75 1.68.77 0 1.41-.26 1.91-.78.5-.51.75-1.16.75-1.95 0-.34-.05-.69-.16-1.04-.11-.36-.26-.66-.45-.91-.19-.26-.46-.51-.82-.76-.35-.24-.89-.54-1.61-.91-.64-.32-1.13-.59-1.46-.81-.34-.22-.62-.44-.82-.67-.58-.63-.87-1.39-.87-2.3 0-.55.11-1.08.34-1.6.22-.51.54-.95.94-1.32a3.62 3.62 0 0 1 2.53-.98c.31 0 .6.03.87.09s.63.19 1.08.37c.34.14.56.22.68.26.13.04.23.05.33.05.23 0 .39-.16.47-.51h.23l.06 3.98h-.23c-.18-.63-.33-1.12-.47-1.46-.13-.34-.28-.65-.46-.94-.33-.52-.69-.91-1.08-1.16-.4-.25-.86-.38-1.37-.38-.75 0-1.34.26-1.78.77-.18.21-.32.45-.42.73-.11.28-.16.56-.16.85 0 1.11.72 2.01 2.16 2.7l1.41.68c1.09.52 1.88 1.09 2.35 1.71.55.7.83 1.51.83 2.43 0 .61-.13 1.2-.38 1.75-.34.78-.87 1.38-1.56 1.8-.7.42-1.52.63-2.47.63-.86 0-1.69-.17-2.49-.51-.41-.19-.66-.29-.74-.32-.08-.02-.17-.04-.27-.04-.32 0-.55.16-.67.48h-.22zm131.75-26.73c.31-.25.55-.47.71-.65.15-.19.29-.42.41-.68.23-.49.35-1.02.35-1.59 0-.67-.16-1.2-.48-1.6-.32-.39-.75-.59-1.29-.59-.46 0-.84.15-1.12.45-.29.3-.43.69-.43 1.18 0 .28.05.57.17.86.12.28.34.68.66 1.18.32.49.66.96 1.02 1.44zm-1.24 1.11c-.56.34-.99.81-1.3 1.42-.31.61-.46 1.28-.46 2.03 0 .51.08 1.01.24 1.49.16.48.37.89.65 1.22.25.3.56.53.91.7.36.17.73.25 1.13.25.62 0 1.17-.19 1.66-.58.18-.15.34-.31.49-.49.14-.18.33-.44.55-.79l-3.87-5.25zm1.43-.89 3.33 4.64c.47-.87.8-1.54.98-2 .19-.47.28-.86.28-1.19 0-.64-.46-1.03-1.38-1.16v-.21h3.89v.21c-.3.03-.55.08-.75.15-.19.08-.38.2-.55.36-.34.32-.76.99-1.26 2.03l-.31.64c-.17.36-.41.82-.74 1.4.26.33.56.69.9 1.07.35.39.65.7.92.95.38.34.72.6 1 .75.29.16.56.24.83.24.29 0 .53-.08.72-.24.2-.16.37-.41.51-.77l.21.08c-.33 1.14-1.05 1.71-2.16 1.71-.37 0-.75-.08-1.15-.22-.41-.14-.77-.33-1.1-.57-.5-.38-1.02-.88-1.55-1.52-.3.43-.54.75-.73.97-.38.43-.83.76-1.35.99-.52.23-1.07.35-1.66.35-.54 0-1.06-.1-1.57-.3a3.3 3.3 0 0 1-1.23-.83c-.6-.63-.89-1.43-.89-2.4 0-.95.28-1.82.86-2.6.23-.31.51-.59.82-.86.32-.28.76-.59 1.32-.95l.16-.11c-.42-.59-.71-1.05-.89-1.39-.41-.79-.61-1.5-.61-2.11 0-.39.09-.78.28-1.16.23-.5.58-.88 1.03-1.14.45-.26 1-.39 1.63-.39.83 0 1.51.23 2.04.68.54.45.8 1.03.8 1.74 0 .51-.13.98-.41 1.38-.27.4-.72.8-1.33 1.19-.43.28-.73.48-.89.59zm-11.66-5.35.16 3.31-.22.01c-.09-.56-.23-1.03-.43-1.4-.21-.36-.5-.69-.88-.97-.31-.23-.68-.4-1.11-.5-.43-.1-1-.14-1.71-.14h-2.29v6.03h.6c.61 0 1.07-.05 1.38-.12.31-.09.56-.23.75-.44.19-.19.33-.42.43-.68.08-.26.16-.65.22-1.16l.23.01-.05 5.36h-.22c-.06-.52-.15-.93-.27-1.24a2.2 2.2 0 0 0-.49-.81c-.2-.21-.46-.37-.78-.47-.32-.1-.73-.15-1.23-.15h-.57v2.3c0 .91.02 1.58.07 1.99.04.42.14.77.27 1.05.23.48.58.83 1.04 1.05.47.23 1.09.34 1.86.34.8 0 1.47-.1 2.01-.3.54-.21.97-.52 1.32-.95.24-.29.43-.62.58-.98.15-.37.29-.85.42-1.46l.22.02-.12 3.98H193.7v-.23c.38-.02.69-.07.93-.16.24-.08.45-.22.64-.42.21-.21.35-.49.43-.82.08-.33.11-.83.11-1.52v-7.39c0-.68-.03-1.19-.11-1.52-.08-.33-.22-.6-.43-.82-.18-.19-.39-.33-.63-.42-.23-.08-.55-.14-.94-.16v-.22h10.77zm-23.76 1.81v8.72c0 .69.04 1.2.12 1.53.07.33.22.6.42.81.19.2.4.34.64.42.24.09.54.14.92.16v.23h-4.61v-.23c.38-.02.69-.07.93-.16.23-.08.44-.22.63-.42.21-.21.35-.49.42-.82.08-.33.12-.83.12-1.52v-7.4c0-.67-.04-1.18-.12-1.51-.07-.33-.21-.6-.42-.82-.18-.19-.39-.33-.62-.42-.24-.08-.56-.14-.94-.16v-.22h3.85l8.14 10.38v-7.24c0-.69-.04-1.19-.12-1.52-.07-.33-.22-.6-.42-.82-.19-.19-.4-.33-.64-.42a3.56 3.56 0 0 0-.93-.16v-.22h4.62v.22c-.67 0-1.19.2-1.56.58-.21.22-.35.49-.43.82-.08.33-.11.84-.11 1.51v10.55h-.45l-9.44-11.87zm-3.49-1.81v.22c-.38.02-.69.08-.93.16-.23.09-.45.23-.63.42-.26.27-.43.64-.48 1.12-.04.35-.06.76-.06 1.22v7.39c0 .56.02 1 .07 1.32.06.32.15.58.27.77.17.27.39.47.67.6.27.13.63.2 1.09.23v.23h-6.38v-.23c.38-.02.7-.07.94-.16.23-.09.44-.23.62-.42.21-.21.36-.48.43-.81.07-.33.11-.84.11-1.53v-7.39c0-.69-.04-1.19-.11-1.52-.07-.33-.22-.6-.43-.82-.18-.19-.39-.33-.63-.42a3.56 3.56 0 0 0-.93-.16v-.22h6.38zm-13.96 6.62h.98c.66 0 1.17-.04 1.53-.15.36-.09.68-.27.96-.53.65-.6.98-1.39.98-2.38 0-.55-.1-1.05-.29-1.51-.19-.46-.46-.83-.82-1.12-.4-.34-.89-.54-1.45-.6-.15-.02-.5-.02-1.05-.02h-.84v6.31zm0 .31v3.6c0 .68.03 1.19.11 1.52.08.33.22.61.43.82.18.19.39.33.63.42.23.09.54.14.93.16v.23h-6.38v-.23c.39-.02.7-.07.94-.16s.44-.23.62-.42c.22-.21.36-.48.44-.81.07-.33.1-.84.1-1.53v-7.39c0-.57-.02-1.02-.07-1.33-.05-.31-.14-.56-.26-.75-.17-.27-.39-.47-.66-.6-.26-.13-.61-.21-1.04-.24h-.07v-.22h6.03c1.05 0 1.83.05 2.33.16.5.1.96.32 1.37.64.95.72 1.42 1.68 1.42 2.88 0 1.23-.48 2.12-1.44 2.69-.5.29-1.11.47-1.83.53-.22.02-.77.03-1.64.03h-1.96zm-14.42 6.69.03-4.15.23.04c.28 1.06.62 1.89 1.01 2.49.73 1.12 1.65 1.68 2.75 1.68.77 0 1.41-.26 1.91-.78.5-.51.75-1.16.75-1.95 0-.34-.05-.69-.17-1.04-.1-.35-.25-.66-.44-.91-.19-.26-.47-.51-.82-.75s-.89-.55-1.61-.92c-.64-.31-1.13-.59-1.47-.81-.33-.22-.61-.44-.82-.67-.57-.62-.86-1.39-.86-2.29 0-.56.11-1.09.34-1.61.22-.51.53-.95.94-1.32.71-.65 1.55-.98 2.52-.98.32 0 .61.03.88.09.27.07.63.19 1.08.38.33.13.56.22.68.25.13.04.23.06.33.06.23 0 .39-.17.47-.51h.22l.07 3.98h-.23c-.18-.64-.34-1.13-.47-1.47-.13-.34-.28-.65-.46-.93-.33-.53-.69-.91-1.09-1.17-.39-.25-.85-.37-1.36-.37-.75 0-1.34.25-1.78.76-.18.21-.32.45-.43.73-.1.28-.15.56-.15.85 0 1.12.72 2.02 2.15 2.7l1.42.68c1.09.52 1.87 1.09 2.35 1.71.55.7.83 1.51.83 2.43 0 .61-.13 1.2-.38 1.76-.35.77-.87 1.37-1.56 1.79-.7.42-1.52.64-2.47.64-.86 0-1.69-.18-2.49-.52-.42-.18-.66-.29-.74-.31a.808.808 0 0 0-.27-.05c-.33 0-.55.16-.67.49h-.22zm-7.61-13.62.16 3.31-.22.01c-.09-.56-.23-1.03-.43-1.4-.21-.36-.5-.69-.88-.97-.31-.23-.68-.4-1.11-.5-.43-.1-1-.14-1.71-.14h-2.29v6.03h.6c.61 0 1.07-.05 1.38-.12.31-.09.56-.23.76-.44.18-.19.32-.42.42-.68.08-.26.16-.65.22-1.16l.23.01-.04 5.36h-.23c-.06-.52-.15-.93-.27-1.24a2.2 2.2 0 0 0-.49-.81c-.2-.21-.46-.37-.78-.47-.32-.1-.73-.15-1.23-.15h-.57v2.3c0 .91.02 1.58.07 1.99.04.42.14.77.27 1.05.23.48.58.83 1.05 1.05.46.23 1.08.34 1.85.34.8 0 1.47-.1 2.01-.3.54-.21.98-.52 1.32-.95.24-.29.43-.62.58-.98.15-.37.29-.85.41-1.46l.23.02-.12 3.98h-11.96v-.23c.38-.02.69-.07.93-.16.24-.08.45-.22.64-.42.21-.21.35-.49.43-.82.08-.33.11-.83.11-1.52v-7.39c0-.68-.03-1.19-.11-1.52-.08-.33-.22-.6-.43-.82-.18-.19-.39-.33-.63-.42-.23-.08-.55-.14-.94-.16v-.22h10.77zm-19.43.31c-.43 0-.88.01-1.36.04-1.03.05-1.8.18-2.3.39-.51.2-.93.56-1.25 1.07-.3.47-.53 1.1-.69 1.9l-.23-.02.19-3.69h13.53l.19 3.69-.23.02c-.18-.92-.46-1.63-.85-2.11-.38-.47-.94-.82-1.68-1.02-.61-.19-1.67-.27-3.15-.27v10.22c0 .69.04 1.19.12 1.52.07.34.22.61.42.82.19.2.4.34.64.42.24.09.55.14.93.16v.23h-6.4v-.23c.39-.02.7-.07.94-.16.24-.08.45-.22.64-.42.2-.21.34-.48.42-.81.08-.33.12-.84.12-1.53V24.96zm-6.41-.31v.22c-.38.02-.69.08-.93.16-.23.09-.44.23-.63.42-.26.27-.42.64-.48 1.12-.04.35-.06.76-.06 1.22v7.39c0 .56.02 1 .08 1.32.05.32.14.58.26.77.17.27.4.47.67.6s.64.2 1.09.23v.23h-6.38v-.23c.39-.02.7-.07.94-.16.23-.09.44-.23.62-.42.22-.21.36-.48.43-.81.08-.33.11-.84.11-1.53v-7.39c0-.69-.03-1.19-.11-1.52-.07-.33-.21-.6-.43-.82-.18-.19-.39-.33-.63-.42a3.56 3.56 0 0 0-.93-.16v-.22h6.38zM96.5 38.33v-.23c.68 0 1.2-.19 1.57-.57.2-.21.35-.49.42-.82.08-.33.12-.84.12-1.52v-7.4c0-.7-.04-1.23-.13-1.57-.08-.33-.24-.61-.46-.82-.19-.18-.4-.3-.63-.39-.23-.07-.53-.12-.89-.14v-.22h6.38v.22a4 4 0 0 0-.9.15c-.23.08-.44.21-.62.38-.22.23-.38.5-.46.84-.08.33-.12.85-.12 1.55v5.79c0 .88.02 1.55.07 1.98.05.44.14.79.27 1.07.23.48.58.83 1.04 1.05.46.23 1.07.34 1.83.34.8 0 1.47-.11 2.01-.31.54-.22.99-.54 1.34-.98.23-.3.42-.64.57-1.03.15-.38.29-.88.42-1.5l.24.02-.14 4.11H96.5zm-2.02-13.68.17 3.31-.23.01c-.08-.56-.23-1.03-.43-1.4a3.051 3.051 0 0 0-1.98-1.47c-.43-.1-1-.14-1.71-.14H88v6.03h.61c.61 0 1.07-.05 1.38-.12.31-.09.56-.23.75-.44.19-.19.33-.42.42-.68.09-.26.17-.65.23-1.16l.22.01-.04 5.36h-.22c-.07-.52-.15-.93-.27-1.24-.12-.32-.28-.59-.49-.81-.2-.21-.46-.37-.79-.47-.32-.1-.73-.15-1.22-.15H88v2.3c0 .91.03 1.58.07 1.99.05.42.14.77.27 1.05.23.48.58.83 1.05 1.05.47.23 1.09.34 1.85.34.8 0 1.47-.1 2.01-.3.54-.21.98-.52 1.32-.95.24-.29.44-.62.59-.98.14-.37.28-.85.41-1.46l.23.02-.13 3.98H83.72v-.23c.38-.02.69-.07.93-.16.24-.08.45-.22.64-.42.2-.21.35-.49.42-.82.08-.33.12-.83.12-1.52v-7.39c0-.68-.04-1.19-.12-1.52a1.662 1.662 0 0 0-1.05-1.24c-.24-.08-.55-.14-.94-.16v-.22h10.76z" fill-rule="nonzero" fill="#ffffff"></path>
        <path d="m217.9 42.9.17 3.31-.23.01c-.08-.57-.23-1.03-.43-1.4-.2-.37-.49-.69-.87-.97-.31-.24-.69-.41-1.11-.5-.43-.1-1-.15-1.71-.15h-2.3v6.03h.61c.61 0 1.07-.04 1.38-.12.31-.08.56-.22.75-.43.19-.19.33-.42.42-.68.09-.26.17-.65.23-1.17l.22.01-.04 5.37h-.22c-.06-.52-.15-.93-.27-1.25-.12-.31-.28-.58-.49-.8-.2-.21-.46-.37-.78-.47-.33-.1-.74-.15-1.23-.15h-.58v2.29c0 .92.03 1.58.08 2 .04.42.13.77.27 1.05.22.48.57.83 1.04 1.05.47.22 1.09.34 1.86.34.79 0 1.46-.1 2-.31.54-.2.98-.52 1.32-.94.24-.29.44-.62.59-.98.14-.37.29-.86.41-1.46l.23.01-.13 3.99h-11.95v-.23c.38-.02.69-.08.93-.16.24-.09.45-.23.64-.42.21-.22.35-.49.42-.82.08-.33.12-.84.12-1.52v-7.39c0-.68-.04-1.19-.12-1.52a1.662 1.662 0 0 0-1.05-1.24c-.24-.08-.55-.14-.94-.16v-.22h10.76zm-19.76 6.76h.39c.83 0 1.43-.04 1.79-.14.36-.09.7-.28 1.01-.58.71-.67 1.06-1.5 1.06-2.49 0-.52-.1-1.02-.31-1.49-.2-.46-.49-.84-.85-1.15-.28-.22-.62-.38-1.01-.47-.39-.09-.94-.14-1.66-.14h-.42v6.46zm0 .23v3.54c0 .69.04 1.19.12 1.52.08.33.22.61.43.82.18.19.39.32.63.42.24.08.55.14.94.16v.23h-6.39v-.23c.38-.02.69-.08.93-.16.24-.1.45-.23.63-.42.21-.22.35-.49.43-.82.07-.32.11-.83.11-1.52v-7.39c0-.69-.04-1.2-.11-1.52-.08-.33-.22-.6-.43-.82-.18-.19-.39-.33-.63-.42a3.56 3.56 0 0 0-.93-.16v-.22h4.83c.8 0 1.33 0 1.59.01 1.04.04 1.85.18 2.43.42.67.26 1.18.66 1.54 1.2.37.53.55 1.14.55 1.85 0 1.04-.39 1.87-1.18 2.5-.24.19-.51.34-.8.46-.29.12-.68.24-1.17.34.4.17.69.35.88.52.15.14.29.32.42.53.12.21.31.58.56 1.12.59 1.22 1.04 2.12 1.34 2.68.31.57.56.98.77 1.23.17.21.33.35.49.43.15.08.37.13.64.16v.23h-3.3c-.17-.37-.28-.61-.32-.71l-.71-1.59c-.42-.95-.84-1.8-1.27-2.53-.43-.73-.82-1.23-1.18-1.49a1.64 1.64 0 0 0-.58-.28c-.21-.06-.46-.09-.76-.09h-.5zm-10.84.78-2.1-5.2-2 5.2h4.1zm6.29 5.91H187v-.23c.6-.05 1.01-.15 1.24-.3.42-.26.63-.62.63-1.08 0-.28-.09-.64-.28-1.11l-.17-.42-.97-2.36h-4.41l-.52 1.38-.26.62c-.3.74-.45 1.32-.45 1.74a1.53 1.53 0 0 0 .61 1.21c.27.18.6.29 1.01.32v.23h-4.49v-.23c.36-.02.66-.11.93-.26.27-.15.53-.4.78-.74.22-.28.43-.63.63-1.06.2-.43.47-1.08.81-1.94l3.66-9.45h.57l4.37 10.53c.33.8.59 1.36.79 1.71.19.34.4.59.62.77.16.12.35.21.56.28.2.06.51.11.93.16v.23z" fill-rule="nonzero" fill="#ffffff"></path>
        <path d="M43.39 30.5s-11.46.93-13.1 11.54c-1.63 10.62-6.42 14.19-6.42 14.19s6.05-4.57 7.72-12.06c1.29-7.75 3.26-10.05 11.8-13.67z" fill="#ffffff"></path>
        <path d="M30.36 61.79s4.54-6.44 6.77-10.89l-.16-3.16s2.48 6.4.88 16.78c0 0-.1-9.89-.57-12.43 0 0-1.92 4.59-6.92 9.7z" fill="#ffffff"></path>
        <path d="M59.86 44.79s-3.47 8.19-2.23 16.72c0 0 .1-6.67 1.4-12.22 0 0 3 7.41 6.83 10.93 0 0-4.73-7.7-6.52-12.38.19-.06.52-3.05.52-3.05z" fill="#ffffff"></path>
        <path d="M43.76 25.74s-4.4-11.41 3.6-14.26c8.38-1.84 10.81 7.61 6.95 13.74 0 0 4.2-10.2-2.88-12.75-6.93-2.28-8.42 5.01-8.42 6.5 0 0-.45 1.64.75 6.77z" fill="#ffffff"></path>
        <path d="M55.18 29.93s10.19 2.14 10.87 14.91c.84 6.55 6.4 12.79 6.4 12.79s-5.22-7.57-5.34-15.71c-.99-9.32-9.2-11.81-11.93-11.99z" fill="#ffffff"></path>
        <path d="M46.16 9.13c.42 0 .84.01 1.25.03l-.06-.01c-16.71 0-30.26 13.66-30.26 30.5s13.55 30.5 30.26 30.5c6.96 0 13.37-2.38 18.49-6.36a30.764 30.764 0 0 1-19.68 7.08c-17.05 0-30.87-13.82-30.87-30.87S29.11 9.13 46.16 9.13z" fill="#ffffff"></path>
        <path d="M49.72 61.45c1.17 0 2.11.94 2.11 2.11s-.94 2.11-2.11 2.11-2.11-.94-2.11-2.11.94-2.11 2.11-2.11z" fill="#ffc62c"></path>
        <path d="M48.85 55.42c.89 0 1.62.72 1.62 1.62 0 .89-.73 1.61-1.62 1.61-.89 0-1.61-.72-1.61-1.61 0-.9.72-1.62 1.61-1.62z" fill="#ffc62c"></path>
        <path d="M48.69 49.02c1.05 0 1.9.85 1.9 1.9a1.895 1.895 0 1 1-1.9-1.9z" fill="#ffc62c"></path>
        <path d="M49.66 43.62c.89 0 1.61.72 1.61 1.61 0 .89-.72 1.62-1.61 1.62-.89 0-1.62-.73-1.62-1.62 0-.89.73-1.61 1.62-1.61z" fill="#ffc62c"></path>
        <path d="M49.88 39.16c.6 0 1.08.48 1.08 1.08a1.084 1.084 0 1 1-2.17 0c0-.6.49-1.08 1.09-1.08z" fill="#ffc62c"></path>
        <path d="M49.62 35.92c.33 0 .59.26.59.59 0 .33-.26.59-.59.59-.33 0-.59-.26-.59-.59 0-.33.26-.59.59-.59z" fill="#ffc62c"></path>
        <path d="M49.43 33.5c.25 0 .45.2.45.46 0 .25-.2.45-.45.45s-.46-.2-.46-.45c0-.26.21-.46.46-.46z" fill="#ffffff"></path>
    </g>
</svg>